<?xml version="1.0" standalone="no"?>
<!DOCTYPE svg PUBLIC "-//W3C//DTD SVG 20010904//EN"
 "http://www.w3.org/TR/2001/REC-SVG-20010904/DTD/svg10.dtd">
<svg version="1.0" xmlns="http://www.w3.org/2000/svg"
 width="186.000000pt" height="198.000000pt" viewBox="0 0 186.000000 198.000000"
 preserveAspectRatio="xMidYMid meet">

<g transform="translate(0.000000,198.000000) scale(0.100000,-0.100000)"
fill="#000000" stroke="none">
<path d="M743 1723 c-29 -2 -53 -9 -53 -15 0 -7 -4 -7 -12 0 -27 22 -280 -41
-398 -98 -36 -18 -55 -30 -42 -27 23 5 32 -8 10 -15 -8 -3 -12 -21 -12 -47 2
-56 35 -166 45 -149 4 7 9 10 11 8 2 -3 14 -18 28 -34 14 -16 19 -26 13 -22
-7 4 -13 2 -13 -3 0 -6 -5 -11 -11 -11 -6 0 -9 9 -6 20 3 11 1 23 -4 26 -5 3
-9 -8 -9 -25 0 -31 17 -51 29 -34 3 5 15 13 25 16 18 7 18 9 -5 35 l-24 27 27
-23 c24 -22 29 -23 55 -10 21 10 29 21 31 47 2 18 -1 38 -7 44 -8 8 -11 5 -11
-11 0 -15 -9 -26 -26 -32 -34 -13 -31 -14 -48 18 -9 19 -11 34 -4 52 7 18 5
27 -5 35 -25 18 -24 38 5 66 23 22 34 26 56 20 23 -6 27 -13 27 -42 0 -30 -4
-35 -35 -45 -31 -10 -32 -12 -12 -18 16 -6 31 0 54 19 17 14 37 24 45 21 8 -4
21 -6 29 -6 9 0 14 -11 14 -34 0 -26 -5 -36 -20 -41 -24 -7 -17 -25 9 -25 10
0 23 11 30 24 7 13 25 29 39 36 24 10 29 9 49 -17 l23 -28 26 33 c14 17 31 32
37 32 7 0 28 -14 47 -31 38 -35 56 -22 21 14 -29 31 -18 67 20 67 17 0 34 -8
42 -20 12 -17 16 -18 20 -6 3 7 -5 29 -19 47 -30 41 -30 48 2 76 31 26 45 22
63 -18 12 -28 11 -32 -10 -55 -21 -22 -21 -24 -3 -24 10 0 28 -7 38 -15 18
-13 18 -17 6 -41 -13 -23 -19 -25 -52 -20 -43 7 -61 -9 -19 -17 20 -4 31 -14
35 -32 4 -15 16 -36 28 -48 33 -36 48 -82 48 -155 l0 -69 -102 -8 c-57 -5
-116 -8 -133 -8 -16 0 -25 -2 -18 -4 10 -4 10 -7 0 -17 -6 -8 -18 -11 -25 -8
-11 4 -11 6 0 13 19 13 -18 11 -66 -2 -39 -11 -37 -22 4 -31 8 -2 21 -11 28
-20 7 -10 18 -18 24 -18 6 0 5 7 -3 18 -11 14 -11 15 1 5 7 -7 15 -23 17 -35
2 -12 9 -25 15 -29 7 -4 8 -14 3 -25 -8 -17 -9 -17 -13 4 -2 13 -11 26 -20 29
-9 4 -20 12 -25 19 -4 7 -13 11 -21 8 -7 -3 -18 5 -24 18 -6 13 -11 17 -11 11
-1 -20 -18 -15 -24 7 -6 23 -37 26 -70 8 -12 -7 -31 -13 -41 -15 -63 -11 -182
-90 -237 -158 -27 -35 -75 -126 -67 -129 2 -1 13 -7 25 -13 12 -7 28 -10 36
-7 18 7 41 -22 33 -42 -4 -9 -1 -23 5 -30 27 -32 -29 -62 -59 -32 -9 9 -12 8
-12 -6 0 -27 54 -76 87 -77 22 -1 24 -3 6 -6 -12 -2 -35 3 -51 11 -16 8 -32
13 -35 9 -3 -3 -6 3 -5 13 1 30 -21 76 -33 69 -10 -7 -11 -80 0 -100 2 -5 6
-19 7 -30 10 -90 130 -228 218 -249 24 -6 28 -4 22 10 -4 12 -2 15 9 10 19 -7
19 8 0 24 -23 19 -1 50 36 50 17 0 28 -4 25 -9 -3 -5 1 -12 10 -15 12 -4 14
-1 9 14 -5 14 -2 20 9 20 9 0 16 -8 16 -18 0 -10 6 -24 12 -30 10 -10 10 -17
0 -32 -19 -31 -15 -50 12 -50 34 0 49 22 37 53 -6 14 -10 34 -9 44 0 10 -3 26
-7 36 -11 26 10 21 29 -8 19 -29 21 -49 4 -39 -7 4 -3 -3 10 -15 12 -12 22
-29 22 -38 0 -11 6 -14 23 -9 12 4 30 9 39 11 30 7 59 26 53 35 -3 6 1 7 9 4
17 -7 81 32 159 97 32 27 63 49 68 49 5 0 20 -23 34 -50 63 -123 152 -177 280
-166 39 3 89 12 113 21 71 25 163 75 157 85 -3 5 0 12 6 16 8 5 9 3 4 -6 -6
-10 -4 -12 9 -7 10 4 20 7 22 7 2 0 4 47 4 104 l0 105 -30 -11 c-58 -20 -115
4 -134 57 -4 11 -8 118 -8 239 l0 219 -53 -6 c-54 -5 -75 3 -75 31 0 8 -7 20
-17 27 -33 24 11 70 47 47 13 -8 24 -7 45 4 15 8 33 14 40 14 14 0 19 61 9
123 -6 37 -7 38 -24 22 -11 -10 -21 -24 -23 -34 -2 -9 -3 -5 -1 9 1 15 -6 34
-19 48 -11 12 -18 22 -14 22 3 0 15 -10 27 -22 18 -20 22 -21 36 -7 14 14 13
20 -2 60 -10 24 -30 63 -46 86 -28 42 -29 43 -53 27 -14 -9 -34 -28 -46 -43
-19 -25 -20 -25 -16 -3 6 26 4 27 -27 7 -13 -9 -46 -18 -73 -21 -47 -6 -50 -5
-76 29 -15 20 -27 38 -27 41 0 3 -11 16 -25 30 -14 14 -25 34 -25 44 0 11 -6
25 -14 32 -8 6 -13 17 -11 23 3 7 1 17 -3 23 -8 13 -149 23 -229 17z m-473
-177 c0 -7 -8 -20 -17 -27 -15 -12 -16 -12 -10 4 4 10 7 23 7 28 0 5 5 9 10 9
6 0 10 -6 10 -14z m17 -8 c-3 -8 -6 -5 -6 6 -1 11 2 17 5 13 3 -3 4 -12 1 -19z
m0 -95 c-3 -10 -5 -4 -5 12 0 17 2 24 5 18 2 -7 2 -21 0 -30z m1016 -30 c-7
-2 -21 -2 -30 0 -10 3 -4 5 12 5 17 0 24 -2 18 -5z m-67 -25 c-19 -26 -21 -47
-4 -30 26 26 80 -1 61 -30 -4 -7 -8 -24 -8 -38 0 -19 -6 -26 -25 -29 -14 -1
-28 -8 -32 -15 -6 -8 -8 -8 -8 1 0 7 -7 10 -15 7 -19 -8 -45 13 -45 34 0 8 -7
23 -16 33 -9 10 -14 25 -11 34 7 17 52 20 63 4 3 -6 14 2 25 20 10 17 21 31
24 31 4 0 -1 -10 -9 -22z m181 -143 c-1 0 -13 -9 -27 -20 l-25 -20 18 22 c13
14 17 29 12 45 -6 22 -5 22 9 -2 8 -14 14 -25 13 -25z m-303 -34 c3 -5 15 -7
25 -4 13 3 23 -3 31 -18 11 -20 10 -25 -9 -40 -11 -9 -21 -26 -21 -36 0 -40
-54 -60 -67 -25 -3 9 -17 26 -31 38 l-25 21 27 36 c27 35 58 48 70 28z m95
-67 c-12 -13 -32 -23 -43 -23 -20 1 -20 1 -1 6 27 7 55 33 56 52 0 11 2 12 6
3 3 -7 -5 -24 -18 -38z m-736 -109 c-3 -9 -8 -14 -10 -11 -3 3 -2 9 2 15 9 16
15 13 8 -4z m483 -59 c10 -2 19 -10 18 -19 0 -10 -1 -80 -2 -157 l-2 -140 -39
-26 c-25 -16 -38 -31 -34 -40 5 -14 -33 -53 -53 -54 -6 0 -16 6 -22 13 -8 9
-34 13 -76 13 -35 -1 -62 2 -59 7 2 4 -3 7 -11 7 -9 0 -36 20 -61 44 -25 25
-47 40 -51 35 -3 -5 -9 -7 -14 -4 -5 3 -13 -3 -19 -12 -5 -10 -13 -15 -17 -11
-4 4 -13 0 -21 -10 -13 -15 -13 -15 -7 7 4 14 2 21 -4 17 -5 -3 -13 -20 -17
-38 -5 -23 -9 -28 -12 -15 -3 10 3 29 12 43 13 20 19 22 35 14 19 -10 24 -5
22 21 -1 3 9 5 21 5 32 -1 31 54 0 70 -13 6 -20 14 -16 17 3 4 12 2 19 -4 10
-8 14 -2 20 28 11 65 47 117 101 144 26 13 54 31 61 39 9 10 11 10 6 1 -5 -11
2 -12 37 -5 24 4 63 8 86 8 23 0 39 4 36 9 -2 4 6 5 19 2 13 -4 33 -7 44 -9z
m464 0 c0 -2 -7 -7 -16 -10 -8 -3 -12 -2 -9 4 6 10 25 14 25 6z m-1027 -276
c-6 -6 -33 30 -33 44 0 6 9 0 20 -14 10 -14 16 -27 13 -30z m127 40 c13 -9 13
-10 0 -10 -8 0 -22 5 -30 10 -13 9 -13 10 0 10 8 0 22 -5 30 -10z m-100 -15
c7 -8 19 -15 27 -15 13 0 13 3 3 15 -15 18 -3 19 29 1 l24 -13 -35 -13 c-26
-10 -34 -18 -30 -29 4 -13 2 -13 -15 2 -11 9 -24 14 -28 10 -5 -5 -3 0 4 10
11 14 11 20 1 32 -7 8 -8 15 -2 15 5 0 15 -7 22 -15z m833 -32 c-7 -2 -19 -2
-25 0 -7 3 -2 5 12 5 14 0 19 -2 13 -5z m-773 -16 c0 -2 -10 -12 -22 -23 l-23
-19 19 23 c18 21 26 27 26 19z m-45 -76 c-3 -6 -11 -11 -17 -11 -6 0 -6 6 2
15 14 17 26 13 15 -4z m505 -1 c0 -5 -7 -7 -15 -4 -8 4 -15 8 -15 10 0 2 7 4
15 4 8 0 15 -4 15 -10z m-450 -13 c0 -2 -10 -12 -22 -23 l-23 -19 19 23 c18
21 26 27 26 19z m-80 -11 c0 -2 -8 -10 -17 -17 -16 -13 -17 -12 -4 4 13 16 21
21 21 13z m-65 -16 c3 -5 1 -10 -4 -10 -6 0 -11 5 -11 10 0 6 2 10 4 10 3 0 8
-4 11 -10z m456 -47 c-10 -17 -10 -16 -11 3 0 23 13 41 18 25 2 -6 -1 -18 -7
-28z m99 17 c6 -11 8 -20 6 -20 -3 0 -10 9 -16 20 -6 11 -8 20 -6 20 3 0 10
-9 16 -20z m-561 -60 c0 -10 -3 -8 -9 5 -12 27 -12 43 0 25 5 -8 9 -22 9 -30z
m19 15 c-3 -3 -9 2 -12 12 -6 14 -5 15 5 6 7 -7 10 -15 7 -18z m-31 -67 c-3
-7 -5 -2 -5 12 0 14 2 19 5 13 2 -7 2 -19 0 -25z m211 20 c19 -19 14 -27 -10
-21 -13 2 -33 5 -45 4 -23 -1 -30 9 -16 22 11 11 58 8 71 -5z m-129 -39 c-21
-20 -35 -26 -39 -19 -9 15 -23 -17 -14 -33 3 -7 -2 -3 -10 7 -9 11 -16 23 -16
28 0 11 36 28 44 21 3 -3 6 -1 6 5 0 10 19 18 49 21 7 0 -2 -13 -20 -30z
m1044 24 c-7 -2 -19 -2 -25 0 -7 3 -2 5 12 5 14 0 19 -2 13 -5z m-796 -89 c-3
-3 -12 -4 -19 -1 -8 3 -5 6 6 6 11 1 17 -2 13 -5z"/>
<path d="M1152 1343 c2 -9 10 -18 18 -20 13 -4 13 -3 0 6 -13 10 -13 12 0 21
13 8 12 10 -3 10 -12 0 -17 -6 -15 -17z"/>
<path d="M1245 1350 c-3 -6 1 -7 9 -4 17 7 22 -11 6 -19 -6 -3 -5 -4 2 -3 19
4 22 36 4 36 -8 0 -18 -4 -21 -10z"/>
<path d="M1207 1334 c-8 -8 1 -24 14 -24 5 0 9 7 9 15 0 15 -12 20 -23 9z"/>
<path d="M1256 1299 c3 -6 0 -15 -7 -20 -11 -7 -11 -9 2 -9 9 0 18 3 22 6 8 8
-3 34 -15 34 -5 0 -6 -5 -2 -11z"/>
<path d="M1190 1280 c-13 -8 -13 -10 2 -10 9 0 20 5 23 10 8 13 -5 13 -25 0z"/>
<path d="M1070 1191 c0 -11 4 -22 9 -25 5 -4 7 4 3 16 -5 21 -4 22 11 9 9 -7
17 -9 17 -3 0 8 -22 22 -36 22 -2 0 -4 -9 -4 -19z"/>
<path d="M1126 1184 c-6 -15 -4 -15 11 -3 15 13 16 12 10 -10 -4 -17 -3 -21 5
-13 12 12 4 42 -11 42 -5 0 -12 -7 -15 -16z"/>
<path d="M1047 1163 c-10 -9 -9 -33 1 -33 4 0 8 9 9 20 2 21 0 24 -10 13z"/>
<path d="M1097 1154 c-3 -3 -3 -12 0 -20 3 -8 0 -14 -6 -14 -17 0 -13 -27 4
-34 17 -6 31 16 21 33 -4 5 -2 12 4 16 6 4 8 11 5 16 -7 10 -19 12 -28 3z m13
-50 c0 -8 -5 -12 -10 -9 -6 4 -8 11 -5 16 9 14 15 11 15 -7z"/>
<path d="M1050 1693 c0 -36 27 -87 60 -117 l40 -36 31 35 c17 19 39 35 48 35
28 0 33 12 11 27 -17 12 -24 12 -36 2 -8 -6 -17 -9 -21 -5 -3 3 -1 6 6 6 29 0
2 23 -47 40 -44 16 -52 16 -52 4 0 -24 28 -71 55 -92 22 -17 23 -21 8 -26 -10
-4 -14 -4 -10 0 9 9 -43 65 -54 58 -4 -2 -11 1 -15 7 -5 8 -3 9 6 4 10 -6 12
-2 7 16 -4 13 -7 30 -7 37 0 6 -7 12 -15 12 -8 0 -15 -3 -15 -7z m71 -110 c13
-16 12 -17 -3 -4 -10 7 -18 15 -18 17 0 8 8 3 21 -13z"/>
<path d="M990 1681 c0 -6 4 -13 10 -16 6 -3 7 1 4 9 -7 18 -14 21 -14 7z"/>
<path d="M1404 1189 c-11 -18 14 -35 29 -20 10 10 9 11 -5 6 -20 -8 -25 10 -5
18 9 4 9 6 0 6 -6 1 -15 -4 -19 -10z"/>
<path d="M1301 1177 c-13 -17 -5 -27 23 -27 16 0 18 2 7 9 -7 5 -10 14 -7 20
10 16 -9 14 -23 -2z"/>
<path d="M1365 1170 c-4 -6 -3 -16 3 -22 6 -6 12 -6 17 2 4 6 3 16 -3 22 -6 6
-12 6 -17 -2z"/>
<path d="M1406 1136 c6 -15 4 -18 -9 -13 -11 4 -14 2 -10 -9 3 -7 11 -14 18
-14 23 0 28 21 11 38 -16 16 -17 16 -10 -2z"/>
<path d="M1320 1115 c0 -15 27 -28 41 -19 18 11 8 29 -16 30 -14 1 -25 -4 -25
-11z"/>
<path d="M172 746 c7 -8 15 -12 17 -11 5 6 -10 25 -20 25 -5 0 -4 -6 3 -14z"/>
<path d="M222 726 c7 -8 16 -12 21 -9 11 7 -2 23 -19 23 -12 0 -12 -2 -2 -14z"/>
<path d="M167 704 c-8 -8 1 -24 14 -24 5 0 9 7 9 15 0 15 -12 20 -23 9z"/>
<path d="M230 674 c0 -9 -5 -12 -12 -8 -7 4 -8 3 -4 -4 12 -19 36 -14 36 8 0
11 -4 20 -10 20 -5 0 -10 -7 -10 -16z"/>
<path d="M424 359 c-3 -6 -1 -16 6 -22 10 -9 11 -9 5 2 -4 8 -2 17 6 22 9 6
10 9 2 9 -6 0 -15 -5 -19 -11z"/>
<path d="M507 334 c7 -3 9 -13 6 -22 -4 -14 -3 -14 5 -2 12 16 7 30 -11 29 -9
0 -9 -2 0 -5z"/>
<path d="M450 315 c0 -9 5 -15 11 -13 6 2 11 8 11 13 0 5 -5 11 -11 13 -6 2
-11 -4 -11 -13z"/>
<path d="M496 273 c-6 -14 -5 -15 5 -6 7 7 10 15 7 18 -3 3 -9 -2 -12 -12z"/>
</g>
</svg>
